<?xml version="1.0" standalone="no"?>
<!DOCTYPE svg PUBLIC "-//W3C//DTD SVG 20010904//EN"
 "http://www.w3.org/TR/2001/REC-SVG-20010904/DTD/svg10.dtd">
<svg version="1.0" xmlns="http://www.w3.org/2000/svg"
 width="460.000000pt" height="246.000000pt" viewBox="0 0 460.000000 246.000000"
 preserveAspectRatio="xMidYMid meet">
<metadata>
Created by potrace 1.15, written by Peter Selinger 2001-2017
</metadata>
<g transform="translate(0.000000,246.000000) scale(0.100000,-0.100000)"
fill="#000000" stroke="none">
<path d="M1000 2164 c-135 -26 -276 -81 -383 -150 -97 -62 -240 -210 -300
-310 -57 -96 -110 -241 -127 -346 -20 -121 -8 -322 24 -431 83 -277 270 -496
530 -617 140 -66 228 -84 406 -84 223 0 366 41 536 153 268 178 426 453 441
771 19 392 -190 746 -542 921 -145 72 -228 91 -410 94 -82 2 -161 1 -175 -1z
m666 -646 c-24 -51 -149 -304 -279 -563 l-235 -470 -276 559 c-152 307 -276
560 -276 562 0 2 250 4 555 4 l554 0 -43 -92z"/>
<path d="M921 1373 c0 -5 53 -114 118 -243 l118 -235 77 152 c42 84 76 155 76
158 0 3 -36 5 -80 5 -44 0 -80 2 -80 5 0 3 18 41 40 85 l40 80 -155 0 c-85 0
-155 -3 -154 -7z"/>
<path d="M2674 886 c-34 -15 -44 -33 -44 -75 0 -33 21 -54 73 -72 47 -17 61
-32 52 -58 -9 -29 -52 -38 -86 -19 -20 12 -30 13 -38 5 -18 -18 -13 -27 26
-43 72 -30 143 5 143 71 0 41 -20 62 -82 85 -35 12 -43 20 -43 40 0 32 46 51
77 31 17 -11 23 -10 35 1 11 12 12 17 1 25 -23 19 -81 24 -114 9z"/>
<path d="M3502 890 c-96 -23 -133 -150 -66 -230 44 -52 138 -62 193 -21 l24
19 -22 11 c-17 10 -26 9 -43 -4 -28 -19 -51 -19 -87 -1 -67 35 -68 140 -1 179
35 21 53 21 89 2 26 -13 30 -13 42 1 11 13 10 18 -6 27 -44 26 -70 30 -123 17z"/>
<path d="M3869 891 c-46 -15 -69 -31 -85 -62 -20 -40 -20 -108 1 -149 18 -34
81 -70 125 -70 44 0 107 36 125 70 35 67 13 165 -43 194 -37 19 -91 27 -123
17z m111 -66 c36 -37 35 -104 -2 -142 -80 -79 -202 16 -151 117 33 64 102 75
153 25z"/>
<path d="M2401 771 c-28 -66 -54 -127 -57 -135 -5 -12 0 -16 19 -16 19 0 28 7
36 30 10 29 12 30 73 30 61 0 64 -1 75 -30 8 -22 18 -30 37 -30 l25 0 -31 73
c-105 247 -104 247 -177 78z"/>
<path d="M2850 785 c0 -121 10 -147 67 -166 27 -8 45 -9 73 0 59 18 70 43 70
166 0 98 -1 105 -20 105 -19 0 -20 -7 -20 -100 0 -87 -3 -103 -20 -120 -20
-20 -56 -26 -76 -12 -25 16 -34 55 -34 141 0 84 -1 91 -20 91 -19 0 -20 -7
-20 -105z"/>
<path d="M3120 756 c0 -129 1 -136 20 -136 18 0 20 8 22 108 l3 107 65 -107
c61 -101 67 -108 98 -108 l32 0 0 135 0 135 -25 0 c-24 0 -24 -1 -27 -100 l-3
-100 -61 97 c-54 87 -64 98 -92 101 l-32 3 0 -135z"/>
<path d="M4100 756 c0 -129 1 -136 20 -136 19 0 20 7 20 100 0 55 3 100 8 100
4 0 34 -44 67 -97 54 -88 64 -98 93 -101 l32 -3 0 135 0 136 -25 0 c-24 0 -24
-1 -27 -99 l-3 -100 -60 97 c-54 87 -64 97 -93 100 l-32 3 0 -135z"/>
</g>
</svg>
